<svg height="512pt" viewBox="0 -14 512.25959 512" width="512pt" xmlns="http://www.w3.org/2000/svg"><g fill="#4fba6f"><path d="m476.523438 70.96875c-1.9375 1.257812-4.300782 1.683594-6.554688 1.179688-2.253906-.507813-4.210938-1.902344-5.421875-3.871094-.519531-.867188-1.125-1.734375-1.734375-2.605469-3.125-4.945313-6.335938-9.890625-9.546875-14.75-5.898437-9.199219-11.886719-18.226563-17.960937-27.335937-1.753907-2.574219-1.992188-5.890626-.625-8.6875 1.367187-2.796876 4.132812-4.644532 7.238281-4.839844 3.109375-.195313 6.082031 1.289062 7.789062 3.894531 6.683594 9.980469 13.277344 20.046875 19.789063 30.113281l9.632812 14.839844v.085938c2.570313 4.027343 1.40625 9.378906-2.605468 11.976562zm0 0"/><path d="m148.148438 346.664062c-1.082032-.09375-2.152344-.269531-3.210938-.519531-5.890625-1.019531-11.652344-2.675781-17.179688-4.945312-25.421874-10.695313-48.835937-25.632813-69.25-44.171875-18.832031-17.441406-73.15625-65.691406-54.757812-86.953125 18.480469-21.171875 68.46875 30.460937 86.171875 48.683593 18.601563 19.707032 34.796875 41.554688 48.246094 65.085938 3.386719 6.097656 6.289062 12.453125 8.679687 19.003906.5 1.25.933594 2.523438 1.300782 3.816406zm0 0"/><path d="m203.601562 283.835938c-4.972656-.960938-9.851562-2.355469-14.578124-4.164063-5.621094-2.011719-11.125-4.328125-16.488282-6.941406-20.855468-10.296875-40.304687-23.214844-57.882812-38.445313-19.089844-17.355468-68.207032-62.652344-50.070313-83.828125 18.222657-21.175781 64.5625 25.078125 82.003907 43.476563 15.949218 17.699218 30.054687 36.976562 42.089843 57.535156 3.382813 5.8125 6.421875 11.453125 8.9375 16.921875 2.367188 4.996094 4.371094 10.160156 5.988281 15.445313zm0 0"/><path d="m246.90625 210.074219c-6.296875-.730469-12.480469-2.246094-18.398438-4.511719-20.410156-8-39.109374-19.808594-55.105468-34.800781-16.574219-15.707031-57.882813-57.621094-39.660156-77.144531 18.226562-19.613282 58.144531 20.566406 73.417968 38.007812 14.421875 18.472656 25.871094 39.085938 33.929688 61.09375 2.34375 6.074219 4.339844 11.976562 5.816406 17.355469zm0 0"/><path d="m303.570312 153.148438c-4.503906-1.277344-8.910156-2.871094-13.1875-4.773438-19.335937-8.917969-37.027343-21.035156-52.328124-35.839844-13.886719-14.40625-48.859376-51.894531-31.851563-67.253906 16.925781-15.359375 53.371094 24.816406 65.867187 40.4375 12.707032 16.269531 22.433594 34.664062 28.722657 54.324219 1.265625 4.289062 2.195312 8.671875 2.777343 13.105469zm0 0"/><path d="m366.574219 114.445312c-6.128907-2.175781-12.003907-4.996093-17.53125-8.417968-14.5-8.667969-27.753907-19.265625-39.398438-31.503906-11.191406-12.496094-42.433593-47.378907-26.988281-58.75 15.535156-11.453126 45.648438 25.773437 56.234375 39.660156 9.691406 12.976562 17.546875 27.226562 23.34375 42.347656 2.070313 5.375 3.527344 10.960938 4.339844 16.664062zm0 0"/><path d="m425.410156 82.335938c-6.613281-2.328126-12.910156-5.476563-18.742187-9.375h-.089844c-9.753906-6.210938-18.605469-13.746094-26.292969-22.386719-9.199218-11.109375-29.851562-39.484375-15.101562-48.683594 14.839844-9.199219 37.316406 20.046875 45.648437 32.367187 6.058594 9.214844 10.410157 19.445313 12.84375 30.199219 1.5 5.835938 2.085938 11.863281 1.734375 17.878907zm0 0"/></g><path d="m146.847656 342.847656c-.605468 1.128906-1.300781 2.167969-1.910156 3.296875-5.890625-1.019531-11.652344-2.675781-17.179688-4.945312 3.296876-5.902344 6.855469-11.714844 10.410157-17.355469 3.386719 6.097656 6.289062 12.453125 8.679687 19.003906zm0 0" fill="#527f72"/><path d="m197.613281 268.390625c-2.949219 3.730469-5.8125 7.464844-8.589843 11.28125-5.621094-2.011719-11.125-4.328125-16.488282-6.941406 5.207032-7.203125 10.671875-14.320313 16.140625-21.261719 3.382813 5.8125 6.421875 11.453125 8.9375 16.921875zm0 0" fill="#24ae5f"/><path d="m246.90625 210.074219c-6.296875-.730469-12.480469-2.246094-18.398438-4.511719 4.078126-4.425781 8.242188-8.679688 12.582032-12.84375 2.34375 6.074219 4.339844 11.976562 5.816406 17.355469zm0 0" fill="#24ae5f"/><path d="m300.792969 140.042969c1.265625 4.289062 2.195312 8.671875 2.777343 13.105469-4.503906-1.277344-8.910156-2.871094-13.1875-4.773438 3.382813-2.863281 6.941407-5.640625 10.410157-8.332031zm0 0" fill="#24ae5f"/><path d="m366.574219 114.445312c-6.128907-2.175781-12.003907-4.996093-17.53125-8.417968 4.339843-2.863282 8.765625-5.640625 13.191406-8.246094 2.070313 5.375 3.527344 10.960938 4.339844 16.664062zm0 0" fill="#24ae5f"/><path d="m425.410156 82.335938c-6.613281-2.328126-12.910156-5.476563-18.742187-9.375 5.550781-2.949219 11.28125-5.8125 17.007812-8.503907 1.5 5.835938 2.085938 11.863281 1.734375 17.878907zm0 0" fill="#24ae5f"/><path d="m479.128906 58.90625c-5.46875 2.253906-10.9375 4.511719-16.316406 6.765625-3.125-4.945313-6.335938-9.890625-9.546875-14.75 5.382813-2.34375 10.761719-4.601563 16.230469-6.855469zm0 0" fill="#24ae5f"/><path d="m497.257812 110.707031c-2.8125.003907-5.453124-1.355469-7.082031-3.648437-8.628906-12.132813-11.808593-19.265625-20.25-32.917969-2.519531-4.074219-1.257812-9.425781 2.816407-11.945313 4.078124-2.519531 9.425781-1.257812 11.945312 2.820313 8.246094 13.328125 11.214844 20.152344 19.632812 31.984375 1.886719 2.644531 2.132813 6.117188.648438 9.003906-1.488281 2.886719-4.464844 4.703125-7.710938 4.707032zm0 0" fill="#14a085"/><path d="m235.027344 395.269531c-18.023438-17.058593-56.964844-43.945312-85.609375-47.421875 8.601562 27.226563 37.167969 67.324219 54.132812 85.15625 16.964844 17.832032 70.925781 67.085938 88.253907 46.28125 17.332031-20.808594-38.757813-66.960937-56.777344-84.015625zm0 0" fill="#14a085"/><path d="m282.164062 322.886719c-24.105468-20.5625-52.214843-35.898438-82.554687-45.035157 11.484375 30.117188 28.460937 57.84375 50.066406 81.769532 16.496094 17.425781 65.515625 63.777344 82.660157 44.117187 17.140624-19.660156-32.8125-64.558593-50.171876-80.851562zm0 0" fill="#14a085"/><path d="m329.816406 258.511719c-16.789062-16.167969-54.3125-45.574219-81.925781-47.441407 7.382813 27.367188 37.203125 69.105469 53.507813 86.171876 16.300781 17.070312 58.226562 60.773437 75.113281 42.175781 16.886719-18.597657-29.910157-64.742188-46.695313-80.90625zm0 0" fill="#14a085"/><path d="m379.589844 203.523438c14.722656 15.5625 53.882812 59.417968 37.125 73.902343-16.761719 14.484375-55.953125-33.683593-69.773438-48.925781-13.820312-15.242188-40.351562-49.515625-42.433594-74.339844 24.917969 5.917969 60.363282 33.796875 75.082032 49.363282zm0 0" fill="#14a085"/><path d="m426.253906 156.339844c11.933594 12.28125 41.972656 50.117187 27.914063 61.222656-14.058594 11.101562-43.699219-30.132812-54.507813-42.703125-10.804687-12.574219-30.417968-39.980469-32.355468-59.597656 19.261718 6.195312 47.019531 28.796875 58.949218 41.078125zm0 0" fill="#14a085"/><path d="m468.105469 113.476562c8.101562 9.890626 27.363281 34.328126 15.230469 42.382813-12.132813 8.058594-33.242188-17.804687-41.5-28.207031-10.316407-12.632813-15.980469-28.421875-16.046876-44.730469 16.339844 6.667969 30.847657 17.144531 42.316407 30.554687zm0 0" fill="#14a085"/><path d="m85.40625 481.214844c-2.90625-.003906-5.617188-1.460938-7.226562-3.882813-1.605469-2.421875-1.894532-5.488281-.769532-8.167969 92-218.554687 222.492188-349.667968 423.113282-425.109374 2.902343-1.09375 6.167968-.554688 8.5625 1.414062 2.398437 1.96875 3.5625 5.0625 3.058593 8.121094-.507812 3.0625-2.605469 5.617187-5.507812 6.710937-195.792969 73.625-323.234375 201.800781-413.222657 415.601563-1.355468 3.21875-4.511718 5.3125-8.007812 5.3125zm0 0" fill="#527f72"/></svg>